<svg width="865" height="192" viewBox="0 0 865 192" fill="none" xmlns="http://www.w3.org/2000/svg">
<path d="M166.277 1.84829L165.503 77.1877L155.001 77.0798L155.664 12.4878L139.596 12.3228C136.585 12.2919 133.639 12.8707 130.755 14.0593C127.942 15.2485 125.474 16.9788 123.35 19.25L104.035 38.614C100.356 42.3024 96.8967 45.0615 93.6569 46.8913C90.4171 48.7211 88.9088 48.9913 83.9728 48.9406C79.0368 48.8899 77.7095 48.5906 74.438 46.6939C71.2364 44.7979 67.8344 41.9683 64.232 38.2052C61.7379 35.5999 59.3475 33.139 57.0606 30.8225C54.8444 28.4351 52.8707 26.3009 51.1395 24.4201L45.424 18.4496C43.3471 16.1353 40.8796 14.3544 38.0216 13.1068C35.2335 11.86 32.2992 11.2208 29.2185 11.1892L13.2553 11.0252L12.5919 75.6172L2.08974 75.5093L2.86353 0.169922L29.3289 0.44174C33.8098 0.487762 38.1065 1.4276 42.219 3.26127C46.3314 5.09493 49.946 7.67588 53.0628 11.0041C55.0726 13.0312 57.1863 15.1667 59.404 17.4109C61.2752 19.2932 63.3886 21.4646 65.7441 23.9251C68.1703 26.3147 70.5961 28.7402 73.0216 31.2014C75.4471 33.6627 76.8725 36.0417 84.1041 36.1586C91.3357 36.2755 93.0207 33.8432 95.4962 31.4322C97.9717 29.0213 100.412 26.6459 102.817 24.3059C105.292 21.895 107.485 19.7678 109.394 17.9243C111.657 15.7262 113.815 13.6345 115.866 11.6491C119.05 8.38563 122.717 5.87946 126.866 4.13065C131.015 2.38184 135.295 1.53009 139.706 1.57539L166.277 1.84829Z" fill="white"/>
<path d="M205.417 77.5976L259.002 14.4091C262.4 10.7895 264.684 8.14727 270.747 6.03835C275.686 4.32041 280.563 3.93519 284.842 3.97914C289.242 4.02432 293.912 4.52833 298.788 6.32634C304.838 8.55781 307.14 11.249 310.463 14.9376L310.566 15.1536L362.739 79.2134L348.981 79.0721L302.512 22.0575C300.228 19.4544 298.721 17.5589 294.486 16.0634C291.071 14.8572 286.962 14.6962 284.732 14.6733C282.503 14.6504 278.314 14.7047 274.847 15.8616C270.616 17.2738 269.142 19.1351 266.805 21.6908L219.175 77.7389L205.417 77.5976Z" fill="white"/>
<path d="M545.702 33.4765C545.663 37.2739 545.55 40.8556 544.115 44.2088C542.68 47.5619 541.985 50.1023 538.249 52.9623C532.929 57.0349 522.781 59.0387 519.071 59.0006L512.139 58.9294L542.309 81.0578L527.186 80.9024L497.016 58.7741L434.065 58.1275C426.109 58.0458 422.148 60.0533 419.56 61.9749C416.573 64.1918 415.148 66.8893 414.359 68.6726C413.64 70.4567 413.271 72.3518 413.25 74.358L413.195 79.7317L402.693 79.6238L402.748 74.2501C402.784 70.7393 403.448 67.4499 404.74 64.3819C406.102 61.3146 407.915 58.6461 410.179 56.3763C412.443 54.1066 415.087 52.3423 418.111 51.0835C421.135 49.7531 424.363 49.1055 427.794 49.1407L519.162 50.0792C521.403 50.1022 526.364 49.7307 529.691 47.5833C535.478 43.8486 535.8 35.6678 535.824 33.3751C535.848 31.0106 535.778 21.8392 530.001 17.4543C526.753 14.9895 521.769 14.4218 519.529 14.3988L403.375 13.2058L403.467 4.28439L519.62 5.47737C523.331 5.51548 526.824 6.30376 530.099 7.8422C533.375 9.30898 536.226 11.3088 538.65 13.8417C541.075 16.3746 542.97 19.332 544.336 22.7139C545.702 26.0958 545.741 29.6791 545.702 33.4765Z" fill="white"/>
<path d="M1.6515 118.178L1.76188 107.431L65.4081 107.645C65.4081 107.645 57.6469 112.103 54.4757 115.75C53.506 116.866 52.2755 118.698 52.2755 118.698L1.6515 118.178ZM66.3114 183.441L66.7507 140.667C66.7971 136.153 67.6807 131.934 69.4015 128.01C71.1223 124.087 71.8684 122.92 74.6831 120.067C80.9695 113.694 94.4958 108.383 98.9067 108.429L142.911 108.881L142.8 119.628L98.7963 119.176C95.8557 119.146 93.0842 119.691 90.4819 120.81C87.8796 121.93 85.588 123.483 83.607 125.469C81.6967 127.384 80.1679 129.662 79.0204 132.301C77.873 134.941 77.2838 137.765 77.2529 140.774L76.8135 183.549L66.3114 183.441Z" fill="white"/>
<path d="M213.728 184.955C209.738 184.914 204.452 184.484 199.621 182.553C195.121 180.755 193.183 178.797 190.55 176.118C187.987 173.369 185.954 170.231 184.45 166.705C183.016 163.107 182.32 159.266 182.362 155.182L182.53 138.846C182.572 134.762 183.346 130.936 184.854 127.369C186.431 123.802 188.528 120.707 191.146 118.082C193.834 115.387 195.828 113.558 200.348 111.835C205.214 109.981 210.511 109.575 214.502 109.616L292.314 110.415C296.304 110.456 301.521 110.983 306.314 112.924C310.799 114.738 312.824 116.609 315.386 119.358C318.019 122.037 320.053 125.175 321.486 128.772C322.99 132.371 323.721 136.212 323.679 140.296L323.511 156.632C323.469 160.716 322.659 164.541 321.082 168.108C319.576 171.604 317.479 174.699 314.79 177.394C312.172 180.019 310.125 181.936 305.588 183.642C300.752 185.459 295.531 185.796 291.54 185.755L213.728 184.955ZM214.392 120.363C211.871 120.337 207.758 120.439 204.342 121.765C201.469 122.88 200.436 124.037 198.524 125.79C193.758 130.159 193.032 138.954 193.032 138.954L192.864 155.29C191.978 152.988 192.838 157.869 192.864 155.29C193.822 157.521 193.409 164.098 198.085 168.564C199.961 170.356 200.955 171.548 203.819 172.708C207.212 174.081 211.318 174.182 213.839 174.208L291.65 175.007C294.171 175.033 298.194 174.988 301.594 173.712C304.516 172.615 305.573 171.448 307.517 169.688C312.322 165.337 313.009 156.524 313.009 156.524L313.177 140.188C313.177 140.188 312.671 131.363 307.956 126.914C306.049 125.114 305.002 123.94 302.117 122.769C298.748 121.401 294.724 121.188 292.203 121.163L214.392 120.363Z" fill="white"/>
<path d="M521.227 112.766L467.642 175.955C464.243 179.646 460.293 182.472 455.791 184.432C451.36 186.393 446.693 187.348 441.792 187.298C436.891 187.247 432.211 186.196 427.75 184.144C423.36 182.092 419.504 179.187 416.181 175.426L416.077 175.318L363.905 111.15L377.663 111.292L424.132 168.306C426.416 170.909 429.056 172.943 432.052 174.407C435.118 175.8 438.402 176.514 441.903 176.55C445.333 176.586 448.596 175.938 451.691 174.609C454.786 173.207 457.502 171.229 459.839 168.673L507.364 112.624L521.227 112.766Z" fill="white"/>
<path d="M545.055 145.364L545.277 123.762C545.277 123.762 545.562 117.598 552.817 115.39C560.073 113.182 570.198 113.269 570.198 113.269L686.536 114.464L686.425 125.211L555.623 123.868L555.401 145.47L545.055 145.364ZM551.375 185.414C544.673 182.544 544.724 177.606 544.724 177.606L544.944 156.111L555.291 156.218L555.07 177.713L685.872 179.056L685.762 189.803L569.424 188.609C569.424 188.609 558.077 188.283 551.375 185.414ZM544.944 156.111L545.055 145.364L686.203 146.814L686.093 157.561L544.944 156.111Z" fill="white"/>
<path d="M863.582 144.014C863.543 147.811 863.43 151.393 861.995 154.746C860.56 158.099 859.865 160.639 856.128 163.499C850.808 167.572 840.661 169.576 836.951 169.538L830.019 169.467L860.189 191.595L845.066 191.44L814.896 169.311L751.944 168.665C743.989 168.583 740.028 170.59 737.439 172.512C734.453 174.729 733.027 177.426 732.239 179.21C731.52 180.994 731.151 182.889 731.13 184.895L731.075 190.269L720.573 190.161L720.628 184.787C720.664 181.276 721.328 177.987 722.62 174.919C723.982 171.852 725.795 169.183 728.059 166.914C730.323 164.644 732.967 162.879 735.991 161.621C739.015 160.29 742.243 159.643 745.674 159.678L837.042 160.616C839.283 160.639 844.244 160.268 847.571 158.12C853.358 154.386 853.68 146.205 853.704 143.912C853.728 141.548 853.658 132.376 847.88 127.991C844.633 125.527 839.649 124.959 837.409 124.936L721.255 123.743L721.347 114.822L837.5 116.015C841.211 116.053 844.704 116.841 847.979 118.379C851.255 119.846 854.106 121.846 856.53 124.379C858.955 126.912 860.85 129.869 862.216 133.251C863.582 136.633 863.621 140.216 863.582 144.014Z" fill="white"/>
</svg>
