<?xml version="1.0" encoding="UTF-8"?>
<svg xmlns="http://www.w3.org/2000/svg" version="1.1" viewBox="0 0 24 24">
  <defs>
    <style>
      .cls-1 {
        fill: #00ff48;
      }
    </style>
  </defs>
  <!-- Generator: Adobe Illustrator 28.6.0, SVG Export Plug-In . SVG Version: 1.2.0 Build 709)  -->
  <g>
    <g id="_图层_1" data-name="图层_1">
      <path class="cls-1" d="M12,2C6.5,2,2,6.5,2,12s4.5,10,10,10,10-4.5,10-10S17.5,2,12,2ZM13,19h-2v-2h2v2ZM15.1,11.3l-.9.9c-.7.7-1.2,1.3-1.2,2.8h-2v-.5c0-1.1.4-2.1,1.2-2.8l1.2-1.3c.4-.4.6-.9.6-1.4,0-1.1-.9-2-2-2s-2,.9-2,2h-2c0-2.2,1.8-4,4-4s4,1.8,4,4-.4,1.7-.9,2.2Z"/>
    </g>
  </g>
</svg>