<?xml version="1.0" encoding="UTF-8"?>
<svg xmlns="http://www.w3.org/2000/svg" version="1.1" viewBox="0 0 240 240">
  <defs>
    <style>
      .cls-1 {
        fill: #fff;
      }
    </style>
  </defs>
  <!-- Generator: Adobe Illustrator 28.6.0, SVG Export Plug-In . SVG Version: 1.2.0 Build 709)  -->
  <g>
    <g id="_图层_1" data-name="图层_1">
      <g>
        <path class="cls-1" d="M0,25.5v25.5h51V0H0v25.5ZM44,25.5v18.5H7V7h37v18.5Z"/>
        <path class="cls-1" d="M15,25.5v10.5h21V15H15v10.5Z"/>
        <path class="cls-1" d="M58,14.5v14.5h15v-3.5c0-3.3.2-3.5,3.5-3.5s3.5.2,3.5,3.5.2,3.5,3.5,3.5h3.5v-14h-7V0h-22v14.5ZM73,18.1v4l-3.7-.3c-3.1-.2-3.9-.7-4.1-2.6-.6-3.9.5-5.2,4.3-5.2s3.5.1,3.5,4.1Z"/>
        <path class="cls-1" d="M87,3.5v3.5h29v4c0,3.9-.1,4-3.5,4s-3.5.2-3.5,3.5v3.5h-14v14h7v15h7v15h-3.5c-3.3,0-3.5.2-3.5,3.6s-.1,3.5-3.7,3.2c-3.5-.3-3.8-.6-4.1-3.6-.3-2.9-.6-3.2-3.8-3.2s-3.4.2-3.4,3.5-.2,3.5-3.5,3.5-3.5-.2-3.5-3.5v-3.5h-14v7h14v3.5c0,3.3-.2,3.5-3.5,3.5h-3.4l-.3,7.2-.3,7.3-3.2.3c-3,.3-3.3.6-3.3,3.8s.1,3.5,3.3,3.2c2.9-.3,3.2-.6,3.5-4.1s.5-3.7,3.8-3.7,3.4-.2,3.4-3.5.2-3.5,3.5-3.5,3.5-.2,3.5-3.5v-3.5h15v3.5c0,3.3.2,3.5,3.5,3.5s3.5.1,3.5,4-.1,4-3.5,4h-3.5v21h3.5c3.3,0,3.5-.2,3.5-3.5s.2-3.5,3.5-3.5h3.5v15h-3.5c-3.3,0-3.5.2-3.5,3.5v3.5h-15v-3.4c0-3.3.2-3.5,3.8-3.8,3.5-.3,3.7-.5,3.7-3.8s-.2-3.5-3.7-3.8c-3.6-.3-3.8-.5-3.8-3.8s-.2-3.4-3.5-3.4-3.5.2-3.5,3.5-.2,3.5-3.5,3.5-3.5.1-3.5,4v4h-22v14h-3.5c-3.3,0-3.5-.2-3.5-3.5s-.2-3.5-3.5-3.5-3.5-.2-3.5-3.5.2-3.5,3.5-3.5,3.5-.1,3.5-4v-4h-15v-7h21.9l.3-7.3.3-7.2,3.3-.3,3.2-.3v-13.9h-14v-3.5c0-3.3.2-3.5,3.5-3.5s3.5-.2,3.5-3.5-.2-3.5-3.5-3.5-3.5.2-3.5,3.5v3.5h-15.1l.3-3.8.3-3.7,7.3-.3,7.2-.3v-6.9h-22v36h22v8h-15v3.5c0,3.3-.2,3.5-3.5,3.5h-3.5v-14h-7v21h-4c-3.9,0-4-.1-4-3.5v-3.5H0v51h14v-29h4c3.9,0,4-.1,4-3.5v-3.5h14v14h-3.5c-3.3,0-3.5.2-3.5,3.5s.2,3.5,3.5,3.5,3.5-.2,3.5-3.5v-3.5h15v7h22v4c0,3.9-.1,4-3.5,4s-3.5.2-3.5,3.5.2,3.5,3.5,3.5,3.5-.2,3.5-3.5.2-3.5,3.5-3.5h3.5v14h-15v-7h-21v-3.5c0-3.3.2-3.5,3.5-3.5s3.5-.2,3.5-3.5-.2-3.5-3.5-3.5-3.5.2-3.5,3.5-.1,3.5-4,3.5-4,.1-4,3.5.1,3.5,4,3.5,4,.1,4,3.5v3.5h14v22h3.5c3.3,0,3.5-.2,3.5-3.4s.2-3.5,3.8-3.8c3.5-.3,3.7-.5,4-4.1l.3-3.7h13.8l.3,3.7c.3,3.6.5,3.8,4.1,4.1,3.5.3,3.7.5,3.7,3.8s-.1,3.4-4,3.4-4-.1-4-3.5-.2-3.5-3.5-3.5-3.5.2-3.5,3.5-.2,3.5-3.5,3.5-3.5.2-3.5,3.5v3.5h14v8h-14v14h3.5c3.3,0,3.5.2,3.5,3.5v3.5h22v8h14v3.5c0,3.4.1,3.5,4,3.5s4-.1,4-3.5.2-3.5,3.5-3.5,3.5-.2,3.5-3.5-.2-3.5-3.5-3.5-3.5-.1-3.5-4,.1-4,3.5-4,3.5.2,3.5,3.5.2,3.5,3.5,3.5,3.5-.2,3.5-3.6.1-3.5,3.8-3.2c3.5.3,3.7.5,3.7,3.8s-.2,3.5-3.8,3.8-3.8.5-3.5,3.5c.3,2.9.6,3.2,4.1,3.5s3.7.5,3.7,3.8v3.4h21v-3.5c0-3.3-.2-3.5-3.5-3.5s-3.5-.1-3.5-4,.1-4,3.5-4,3.5-.2,3.5-3.6.1-3.5,3.8-3.2c3.5.3,3.7.5,3.7,3.8s-.2,3.5-3.8,3.8-3.8.5-3.5,3.5c.3,2.9.6,3.2,4.1,3.5s3.7.5,3.7,3.8v3.4h14v-3.5c0-3.3.2-3.5,3.5-3.5s3.5.2,3.5,3.5v3.5h15v-3.5c0-3.3.2-3.5,3.5-3.5s3.5-.2,3.5-3.5-.2-3.5-3.5-3.5-3.5.2-3.5,3.5-.2,3.5-3.5,3.5-3.5-.1-3.5-4,.1-4,3.5-4h3.5v-14h3.5c3.3,0,3.5-.2,3.5-3.5s-.2-3.5-3.5-3.5h-3.5v-15h3.5c3.3,0,3.5-.2,3.5-3.5s-.2-3.5-3.5-3.5h-3.5v-15h-7v-14h3.5c3.3,0,3.5.2,3.5,3.5s.2,3.5,3.5,3.5,3.5.2,3.5,3.5v3.5h15v-7h-15v-3.5c0-3.3-.2-3.5-3.5-3.5s-3.5-.1-3.5-4,.1-4,3.5-4,3.5-.2,3.5-3.5v-3.5h15v-7h-15v-3.5c0-3.3-.2-3.5-3.5-3.5s-3.5-.1-3.5-4,.1-4,3.5-4,3.5-.2,3.5-3.5v-3.5h15v-7h-29v3.5c0,3.4-.1,3.5-4,3.5s-4,.1-4,3.5-.2,3.5-3.5,3.5h-3.5v-13.9l-7.2-.3-7.3-.3-.3-14.3-.3-14.2h15.1v3.5c0,3.3.2,3.5,3.5,3.5s3.5.2,3.5,3.5-.2,3.5-3.5,3.5-3.5.2-3.5,3.5.2,3.5,3.4,3.5,3.5.2,3.8,3.7c.3,3.6.5,3.8,3.8,3.8s3.5-.2,3.8-3.8l.3-3.7h13.9v-14h15v-3.4c0-3.3-.2-3.5-3.7-3.8-3.6-.3-3.8-.5-3.8-3.8v-3.5l7.3-.3,7.2-.3v-6.9h-29v3.5c0,3.3.2,3.5,3.5,3.5h3.5v15h-22v-3.5c0-3.3-.2-3.5-3.5-3.5s-3.5-.2-3.5-3.5-.2-3.5-3.5-3.5h-3.5v-22h-7v14h-15v-3.5c0-3.3.2-3.5,3.5-3.5s3.5-.2,3.5-3.5-.2-3.5-3.5-3.5-3.5-.1-3.5-4,.1-4,3.5-4,3.5-.2,3.5-3.5-.2-3.5-3.5-3.5-3.5-.2-3.5-3.5.2-3.5,3.5-3.5,3.5-.2,3.5-3.5-.2-3.5-3.5-3.5-3.5-.1-3.5-4v-4.1l7.3.3,7.2.3.3,3.2c.3,3,.6,3.3,3.8,3.3s3.5-.1,3.2-3.3c-.3-2.9-.6-3.2-4-3.5-3.6-.3-3.8-.5-3.8-3.8V0h-14v3.5c0,3.3-.2,3.5-3.5,3.5s-3.5-.2-3.5-3.5S152.8,0,149.5,0s-3.5.2-3.5,3.4-.2,3.5-3.7,3.8c-3.6.3-3.8.5-4.1,4-.3,3.6-.5,3.8-3.8,3.8s-3.4-.1-3.4-4-.1-4-3.5-4-3.5-.2-3.5-3.5V0h-37v3.5ZM124,25v11h3.5c3.3,0,3.5-.2,3.5-3.5v-3.5h14v-3.5c0-3.3-.2-3.5-3.6-3.5s-3.5-.1-3.2-3.8c.3-3.5.5-3.7,3.8-3.7s3.5.2,3.8,3.7c.3,3.6.5,3.8,3.8,3.8s3.4.2,3.4,3.5.2,3.5,3.5,3.5,3.5.2,3.5,3.5v3.5h-29v15h3.5c3.3,0,3.5-.2,3.5-3.5s.1-3.5,4-3.5h4v14h3.6c3.5,0,3.5.1,3.2,3.7-.3,3.5-.6,3.8-3.5,4.1-3,.3-3.3.6-3.3,3.8s.1,3.5,3.3,3.2c2.9-.3,3.2-.6,3.5-4.1l.3-3.7h13.9v22h-3.5c-3.3,0-3.5-.2-3.5-3.5s-.2-3.5-3.5-3.5h-3.5v14h14v15h15v3.5c0,3.3-.2,3.5-3.5,3.5s-3.5.1-3.5,4,.1,4,3.5,4,3.5.2,3.5,3.5-.1,3.5-4,3.5-4-.1-4-3.5-.2-3.5-3.5-3.5h-3.5v-15h-3.5c-3.3,0-3.5-.2-3.5-3.5v-3.5h-14v3.5c0,3.3.2,3.5,3.5,3.5h3.5v15.1l-3.7-.3-3.8-.3-.3-7.3-.3-7.2h-13.9v-3.5c0-3.3-.2-3.5-3.5-3.5s-3.5-.1-3.5-4v-4h14v-14h-13.9l-.3,7.2-.3,7.3-3.7.3-3.8.3v-4c0-4-.1-4.1-3.5-4.1s-3.5-.2-3.5-3.5.2-3.5,3.5-3.5,3.5-.2,3.5-3.4.2-3.5,3.8-3.8c3.5-.3,3.7-.5,4-4.1.3-3.5.5-3.7,3.8-3.7h3.4v-14h-6.9l-.3,7.2-.3,7.3-3.7.3-3.8.3v-15.1h-7v-15h-3.5c-3.3,0-3.5-.2-3.5-3.5s.2-3.5,3.5-3.5,3.5-.2,3.5-3.5.2-3.5,3.5-3.5,3.5-.2,3.5-3.3.5-4.7,4.7-4.7h3.3v11ZM160,47.5c0,3.3-.2,3.5-3.5,3.5s-3.5-.2-3.5-3.5.2-3.5,3.5-3.5,3.5.2,3.5,3.5ZM51,83.5v3.5h-15v-7h15v3.5ZM211,112.5c0,3.3-.2,3.5-3.5,3.5s-3.5.1-3.5,4,.1,4,3.5,4,3.5.2,3.5,3.5.2,3.5,3.5,3.5,3.5.2,3.5,3.5-.2,3.5-3.5,3.5-3.5-.2-3.5-3.5-.2-3.5-3.5-3.5h-3.5v22h-8v14h8.1l-.3,3.7c-.3,3.6-.5,3.8-4,4.1l-3.8.3v-8.1h-22v-13.9l3.8-.3,3.7-.3.3-7.3.3-7.2h6.9v15h7v-22h-3.5c-3.3,0-3.5-.2-3.5-3.5s.2-3.5,3.5-3.5,3.5-.1,3.5-4v-4h4c3.9,0,4-.1,4-3.5s.2-3.5,3.5-3.5,3.5.2,3.5,3.5ZM14.8,120.2l.3,3.8H7v-8.1l3.8.3c3.5.3,3.7.5,4,4ZM138.2,119.7c.3,3.6.5,3.8,4.1,4.1,3.5.3,3.7.5,3.7,3.8s.2,3.4,3.5,3.4,3.5.2,3.5,3.5-.2,3.5-3.5,3.5-3.5.2-3.5,3.5v3.5h14v15h7v15h-7v-15h-14v3.5c0,3.3.2,3.5,3.5,3.5h3.5v15h-3.5c-3.3,0-3.5.2-3.5,3.5s.2,3.5,3.5,3.5,3.5.2,3.5,3.5v3.5h-15v-3.5c0-3.3-.2-3.5-3.5-3.5s-3.5.2-3.5,3.5-.2,3.5-3.5,3.5-3.5-.2-3.5-3.5-.1-3.5-4-3.5-4-.1-4-3.5v-3.5h22v-15h-13.9l-.3,3.7-.3,3.8-7.2.3-7.3.3v20.9h3.4c3.3,0,3.5.2,3.8,3.7.3,3.6.5,3.8,4.1,4.1,3.5.3,3.7.5,3.7,3.8v3.4h-15v7h-22v-7h15v-3.4c0-3.3-.2-3.5-3.7-3.8-3.6-.3-3.8-.5-4.1-4.1l-.3-3.7h8.1v-13.9l-3.7-.3-3.8-.3-.3-7.3-.3-7.2h-6.9v-14h-3.5c-3.4,0-3.5-.1-3.5-4s.1-4,3.4-4,3.5.2,3.8,3.7c.3,3.6.5,3.8,4.1,4.1,3.5.3,3.7.5,3.7,3.8s.2,3.4,3.5,3.4,3.5-.2,3.5-3.4-.2-3.5-3.7-3.8l-3.8-.3-.3-7.3-.3-7.2h4.1c3.9,0,4,.1,4,3.5s.2,3.5,3.5,3.5,3.5-.2,3.5-3.5v-3.5h15v-7h14v-3.5c0-3.3-.2-3.5-3.5-3.5s-3.5-.1-3.5-4,.1-4,3.4-4,3.5.2,3.8,3.7ZM87,127.5c0,3.3-.2,3.5-3.5,3.5s-3.5-.2-3.5-3.5.2-3.5,3.5-3.5,3.5.2,3.5,3.5ZM73,134.5c0,3.4-.1,3.5-4,3.5s-4-.1-4-3.5.1-3.5,4-3.5,4,.1,4,3.5ZM174.5,142c0,3.3-.2,3.5-3.7,3.8l-3.8.3v-8.2l3.8.3c3.5.3,3.7.5,3.7,3.8ZM174.8,192.7l.2,18.3h14v15h-3.4c-3.3,0-3.5-.2-3.8-3.8-.3-3.5-.5-3.7-4-4-3.6-.3-3.8-.5-3.8-3.8s-.2-3.4-3.5-3.4-3.5-.2-3.5-3.5-.2-3.5-3.5-3.5h-3.5v-22h3.5c3.3,0,3.5-.2,3.5-3.3s.7-4.9,4.5-4.5l3,.3.3,18.2ZM204,193v11h-22v-22h22v11ZM138,207.5c0,3.3-.2,3.5-3.5,3.5s-3.5-.2-3.5-3.5.2-3.5,3.5-3.5,3.5.2,3.5,3.5ZM153,214.5c0,3.4-.1,3.5-4,3.5s-4-.1-4-3.5.1-3.5,4-3.5,4,.1,4,3.5ZM203.8,218.2l-.3,7.3-3.7.3-3.8.3v-15.1h8.1l-.3,7.2Z"/>
        <path class="cls-1" d="M109,32.5c0,3.3.2,3.5,3.5,3.5s3.5-.2,3.5-3.5-.2-3.5-3.5-3.5-3.5.2-3.5,3.5Z"/>
        <path class="cls-1" d="M116.7,36.6c-.4.4-.7,3.8-.7,7.6v6.8h8.1l-.3-7.3-.3-7.2-3-.3c-1.7-.2-3.4,0-3.8.4Z"/>
        <path class="cls-1" d="M138.7,58.7c-.4.3-.7,2.1-.7,4,0,3.1-.2,3.3-3.5,3.3s-3.5.2-3.5,3.5.2,3.5,3.4,3.5,3.5-.2,3.8-3.8c.3-3.4.6-3.7,3.6-4,2.9-.3,3.2-.6,3.2-3.8s-.3-3.4-2.8-3.4-3.2.3-3.5.7Z"/>
        <path class="cls-1" d="M196,127.5c0,3.4.1,3.5,4,3.5s4-.1,4-3.5-.1-3.5-4-3.5-4,.1-4,3.5Z"/>
        <path class="cls-1" d="M182,156.5c0,3.3.2,3.5,3.5,3.5s3.5-.2,3.5-3.5-.2-3.5-3.5-3.5-3.5.2-3.5,3.5Z"/>
        <path class="cls-1" d="M124,141.5c0,3.3.2,3.5,3.5,3.5s3.5-.2,3.5-3.5-.2-3.5-3.5-3.5-3.5.2-3.5,3.5Z"/>
        <path class="cls-1" d="M138,149.5c0,3.3-.2,3.5-3.5,3.5s-3.5.2-3.5,3.5v3.5h14v-14h-3.5c-3.3,0-3.5.2-3.5,3.5Z"/>
        <path class="cls-1" d="M109,160v7h-3.5c-3.3,0-3.5.2-3.5,3.5s.2,3.5,3.5,3.5,3.5-.2,3.5-3.5.2-3.5,3.5-3.5,3.5-.2,3.5-3.5.1-3.5,4-3.5,4-.1,4-3.5v-3.5h-15v7Z"/>
        <path class="cls-1" d="M189,192.5c0,3.3.2,3.5,3.5,3.5s3.5-.2,3.5-3.5-.2-3.5-3.5-3.5-3.5.2-3.5,3.5Z"/>
        <path class="cls-1" d="M189,25.5v25.5h51V0h-51v25.5ZM233,25.5v18.5h-37V7h37v18.5Z"/>
        <path class="cls-1" d="M204,25.5v10.5h21V15h-21v10.5Z"/>
        <path class="cls-1" d="M175,25.5c0,3.3.2,3.5,3.5,3.5s3.5-.2,3.5-3.5-.2-3.5-3.5-3.5-3.5.2-3.5,3.5Z"/>
        <path class="cls-1" d="M58.7,36.7c-.4.3-.7,3.7-.7,7.5v6.8h7v-15h-2.8c-1.6,0-3.2.3-3.5.7Z"/>
        <path class="cls-1" d="M80,40c0,3.9-.1,4-3.5,4s-3.5.2-3.5,3.5-.2,3.5-3.5,3.5-3.5.2-3.5,3.5.2,3.5,3.5,3.5,3.5-.2,3.5-3.5.2-3.5,3.5-3.5,3.5-.2,3.5-3.5.2-3.5,3.5-3.5h3.5v14h-3.5c-3.3,0-3.5.2-3.5,3.5s.2,3.5,3.5,3.5,3.5-.2,3.5-3.5.2-3.5,3.5-3.5h3.5v-22h-14v4Z"/>
        <path class="cls-1" d="M0,69v11h3.5c3.3,0,3.5-.2,3.5-3.5s.1-3.5,4-3.5,4,.1,4,3.5.2,3.5,3.5,3.5h3.5v-13.9l-3.7-.3c-3.6-.3-3.8-.5-4.1-4.1l-.3-3.7H0v11Z"/>
        <path class="cls-1" d="M196.4,59.3c-.3.8-.4,4.1-.2,7.3l.3,5.9h7v-14l-3.3-.3c-2.1-.2-3.4.2-3.8,1.1Z"/>
        <path class="cls-1" d="M15,90.4c0,3.5.1,3.6,3.6,3.6s3.5-.1,3.2-3.3c-.3-2.8-.7-3.2-3.5-3.5-3.2-.3-3.3-.2-3.3,3.2Z"/>
        <path class="cls-1" d="M87.7,87.7c-.4.3-.7,1.9-.7,3.5,0,2.5.3,2.8,3.5,2.8s3.5-.2,3.5-3.5-.3-3.5-2.8-3.5-3.2.3-3.5.7Z"/>
        <path class="cls-1" d="M226,90.5v3.5h14v-7h-14v3.5Z"/>
        <path class="cls-1" d="M0,98.5c0,3.3.2,3.5,3.5,3.5s3.5-.2,3.5-3.5-.2-3.5-3.5-3.5-3.5.2-3.5,3.5Z"/>
        <path class="cls-1" d="M73,105.5c0,3.3.2,3.5,3.5,3.5s3.5-.2,3.5-3.5-.2-3.5-3.5-3.5-3.5.2-3.5,3.5Z"/>
        <path class="cls-1" d="M233,120c0,3.9.1,4,3.5,4s3.5-.1,3.5-4-.1-4-3.5-4-3.5.1-3.5,4Z"/>
        <path class="cls-1" d="M22,149.5c0,3.3.2,3.5,3.5,3.5s3.5-.2,3.5-3.5-.2-3.5-3.5-3.5-3.5.2-3.5,3.5Z"/>
        <path class="cls-1" d="M233,149.5c0,3.3.2,3.5,3.5,3.5s3.5-.2,3.5-3.5-.2-3.5-3.5-3.5-3.5.2-3.5,3.5Z"/>
        <path class="cls-1" d="M15,167v7h7v-14h-7v7Z"/>
        <path class="cls-1" d="M36.4,168.3c-.3.8-.4,4.1-.2,7.3l.3,5.9,7.3.3,7.2.3v-3.6c0-3.3-.2-3.5-3.4-3.5s-3.5-.2-3.8-3.8c-.3-3.4-.6-3.7-3.6-4-2.1-.2-3.4.2-3.8,1.1Z"/>
        <path class="cls-1" d="M0,178.5v3.5h14v-7H0v3.5Z"/>
        <path class="cls-1" d="M22,178.5c0,3.3.2,3.5,3.5,3.5s3.5-.2,3.5-3.5-.2-3.5-3.5-3.5-3.5.2-3.5,3.5Z"/>
        <path class="cls-1" d="M226,189.5v14.5h3.5c3.3,0,3.5.2,3.5,3.5s-.2,3.5-3.5,3.5h-3.5v14h3.5c3.3,0,3.5-.2,3.5-3.5s.2-3.5,3.5-3.5h3.5v-22h-7v-21h-7v14.5Z"/>
        <path class="cls-1" d="M0,214.5v25.5h51v-51H0v25.5ZM44,214.5v18.5H7v-37h37v18.5Z"/>
        <path class="cls-1" d="M15,214.5v10.5h21v-21H15v10.5Z"/>
        <path class="cls-1" d="M58.7,196.6c-.4.4-.7,3.8-.7,7.6v6.8h3.5c3.3,0,3.5-.2,3.5-3.4s.2-3.5,3.8-3.8c3.5-.3,3.7-.5,3.7-3.8v-3.5l-6.5-.3c-3.6-.2-6.9,0-7.3.4Z"/>
        <path class="cls-1" d="M58,233v7h15v-14h-15v7Z"/>
        <path class="cls-1" d="M87,236.5c0,3.3.2,3.5,3.5,3.5s3.5-.2,3.5-3.5-.2-3.5-3.5-3.5-3.5.2-3.5,3.5Z"/>
        <path class="cls-1" d="M233,236.5c0,3.3.2,3.5,3.5,3.5s3.5-.2,3.5-3.5-.2-3.5-3.5-3.5-3.5.2-3.5,3.5Z"/>
      </g>
    </g>
  </g>
</svg>