<svg width="127" height="69" viewBox="0 0 127 69" fill="none" xmlns="http://www.w3.org/2000/svg">
<path d="M2.84375 11.5049L2.84375 2.42773H45.8697V11.5049H2.84375ZM59.304 66.0589V29.9317C59.304 26.1192 60.0301 22.5489 61.4825 19.2206C62.9348 15.8923 64.9016 12.9875 67.3827 10.5064C69.8638 8.02534 72.7685 6.05861 76.0968 4.60626C79.4251 3.15391 82.9955 2.42773 86.8079 2.42773H124.841V11.5049H86.8079C84.2663 11.5049 81.8759 11.9891 79.6369 12.9573C77.3979 13.9255 75.4311 15.2569 73.7367 16.9513C72.1028 18.5852 70.8018 20.5216 69.8335 22.7607C68.8653 24.9997 68.3812 27.39 68.3812 29.9317L68.3812 66.0589H59.304Z" fill="#F57435"/>
<path d="M68.3809 29.9316C68.3809 27.5488 68.8062 25.2985 69.6572 23.1816L69.834 22.7607C70.7417 20.6616 71.9417 18.828 73.4346 17.2607L73.7363 16.9512C75.3249 15.3626 77.1533 14.0929 79.2207 13.1426L79.6367 12.957C81.7358 12.0493 83.968 11.5675 86.333 11.5107L86.8076 11.5049H124.842V2.42773H86.8076V0.427734L126.842 0.427734V13.5049H86.8076C84.6701 13.5049 82.6745 13.8855 80.8037 14.6377L80.4307 14.793C78.419 15.6629 76.6641 16.8526 75.1514 18.3652C73.796 19.7206 72.6898 21.3193 71.8369 23.1787L71.6689 23.5537C70.8136 25.5316 70.3809 27.6514 70.3809 29.9316L70.3809 68.0586H57.3037L57.3037 29.9316C57.3037 25.8579 58.0815 22.013 59.6494 18.4199C61.1982 14.8707 63.3048 11.7558 65.9688 9.0918C68.6328 6.42781 71.7476 4.32122 75.2969 2.77246C78.8899 1.20462 82.7341 0.42777 86.8076 0.427734V2.42773L86.0957 2.43555C82.55 2.52067 79.2169 3.24393 76.0967 4.60547L75.4775 4.88379C72.407 6.30561 69.7088 8.1799 67.3828 10.5059L66.9238 10.9766C64.6581 13.3522 62.844 16.1004 61.4824 19.2207L61.2188 19.8467C59.9422 22.9954 59.3037 26.3573 59.3037 29.9316L59.3037 66.0586H68.3809L68.3809 29.9316ZM45.8701 2.42773H2.84375L2.84375 11.5049H45.8701V2.42773ZM47.8701 13.5049H0.84375L0.84375 0.427734L47.8701 0.427734V13.5049Z" fill="#F57435"/>
</svg>
